<!DOCTYPE svg PUBLIC "-//W3C//DTD SVG 20010904//EN" "http://www.w3.org/TR/2001/REC-SVG-20010904/DTD/svg10.dtd">
<svg version="1.0" xmlns="http://www.w3.org/2000/svg" width="1306px" height="378px" viewBox="0 0 13060 3780" preserveAspectRatio="xMidYMid meet">
<g id="layer101" fill="#4270c1" stroke="none">
 <path d="M1159 3765 c-34 -18 -53 -65 -45 -108 10 -55 76 -103 125 -92 33 7 13 53 186 -415 70 -189 104 -293 100 -308 -3 -13 -10 -22 -14 -20 -5 2 -124 95 -264 208 -211 169 -256 209 -257 230 -1 57 -69 106 -129 94 -47 -10 -91 -66 -91 -115 0 -33 6 -47 34 -75 46 -46 100 -48 149 -4 l35 30 255 -205 c224 -181 256 -210 261 -240 4 -19 19 -44 36 -58 l28 -24 -281 -415 c-267 -393 -284 -416 -317 -421 -34 -6 -38 -3 -400 356 l-365 362 4 58 c3 53 1 59 -29 87 -43 40 -113 43 -154 5 -22 -20 -26 -32 -26 -80 0 -74 30 -105 99 -105 26 0 51 4 57 10 6 6 147 -126 387 -362 333 -327 377 -373 364 -386 -13 -13 -55 0 -347 105 -303 109 -332 122 -346 149 -23 45 -54 64 -105 64 -35 0 -52 -6 -73 -25 -39 -36 -39 -134 0 -170 41 -38 112 -35 153 6 17 17 31 36 31 43 0 9 120 -30 338 -109 314 -114 337 -124 340 -147 3 -24 -19 -37 -330 -205 l-333 -180 -60 5 c-56 4 -63 2 -93 -26 -27 -26 -32 -37 -32 -77 0 -40 5 -51 31 -76 25 -24 40 -29 79 -29 39 0 54 5 80 30 30 28 32 34 28 87 l-3 57 329 178 c182 98 333 178 336 178 3 0 14 -6 24 -13 16 -12 3 -36 -151 -297 -130 -220 -174 -286 -191 -288 -11 -2 -35 -16 -52 -32 -25 -23 -30 -36 -30 -75 0 -40 5 -51 31 -76 25 -24 40 -29 79 -29 39 0 54 5 79 29 26 25 31 36 31 76 0 41 -5 51 -35 79 l-34 32 167 283 c145 244 173 285 201 297 l33 14 428 -283 c408 -269 429 -284 432 -315 l4 -33 -205 -128 c-113 -71 -314 -196 -447 -278 -240 -150 -241 -150 -263 -131 -14 11 -39 18 -63 18 -32 0 -47 -7 -74 -34 -29 -29 -34 -41 -34 -79 0 -54 26 -91 74 -107 46 -15 80 -4 116 36 23 27 30 45 30 77 l1 42 435 270 c240 149 440 272 445 273 5 2 16 -1 24 -8 11 -9 -21 -64 -183 -310 -108 -164 -199 -298 -202 -298 -33 3 -58 -8 -87 -37 -33 -33 -35 -39 -30 -82 10 -89 96 -131 173 -84 35 22 60 78 50 116 -3 13 -17 37 -30 53 l-25 29 193 294 c161 246 196 294 218 297 18 2 27 -2 30 -15 3 -10 47 -174 98 -365 l92 -347 -22 -45 c-26 -54 -21 -92 17 -130 21 -22 35 -26 80 -26 47 0 59 4 84 29 43 43 41 101 -5 147 -28 28 -42 34 -75 34 -23 0 -41 2 -41 5 0 3 -43 167 -95 363 -89 330 -104 410 -75 400 5 -2 115 -106 245 -231 204 -199 235 -233 235 -259 0 -21 10 -40 34 -64 28 -28 42 -34 76 -34 34 0 48 6 76 34 29 29 34 41 34 79 0 81 -79 134 -153 104 -19 -8 -38 -20 -41 -26 -4 -6 -11 -11 -16 -11 -4 0 -111 99 -236 221 -208 201 -229 224 -240 267 -7 26 -23 56 -36 67 l-23 20 255 412 c201 325 259 413 275 413 12 0 25 4 31 10 6 6 147 -126 387 -362 266 -261 375 -374 368 -381 -6 -6 -11 -32 -11 -58 0 -38 6 -53 29 -78 25 -26 36 -31 76 -31 40 0 51 5 76 31 24 25 29 40 29 79 0 39 -5 54 -30 80 -28 30 -33 32 -89 29 l-59 -4 -369 365 c-320 318 -367 369 -359 386 9 19 25 14 342 -100 299 -108 334 -123 334 -143 0 -12 14 -35 31 -52 26 -26 38 -31 79 -31 41 0 53 5 79 31 26 26 31 38 31 79 0 41 -5 53 -31 79 -26 26 -38 31 -79 31 -43 0 -53 -4 -83 -35 l-34 -35 -328 119 c-263 95 -330 123 -336 139 -5 14 -4 24 4 29 7 4 156 85 332 181 260 140 323 171 337 163 10 -6 38 -11 62 -11 36 0 50 6 75 31 26 26 31 38 31 79 0 41 -5 53 -31 79 -26 26 -38 31 -79 31 -41 0 -53 -5 -80 -31 -28 -29 -31 -37 -29 -86 l3 -54 -334 -180 c-277 -150 -335 -178 -346 -167 -11 11 14 61 153 296 115 193 173 282 184 282 10 0 31 14 48 31 26 26 31 38 31 79 0 41 -5 53 -31 79 -26 26 -38 31 -79 31 -41 0 -53 -5 -79 -31 -26 -25 -31 -38 -31 -77 1 -49 14 -75 53 -101 l23 -16 -166 -280 c-129 -218 -171 -281 -188 -283 -12 -2 -35 -17 -52 -33 l-30 -30 -395 288 c-302 220 -394 291 -388 303 4 8 7 36 8 62 l0 46 415 315 c385 292 416 314 434 301 37 -26 92 -18 131 19 50 47 52 108 4 156 -25 26 -39 31 -76 31 -38 0 -50 -5 -80 -35 -33 -33 -35 -39 -31 -83 l4 -47 -245 -186 c-135 -103 -323 -245 -418 -317 -247 -187 -247 -188 -39 203 151 285 167 311 197 321 45 15 89 67 89 105 0 103 -108 156 -184 89 -18 -17 -37 -42 -40 -56 -9 -35 10 -90 40 -113 l25 -20 -167 -316 c-156 -293 -170 -316 -193 -313 -23 3 -35 30 -156 358 -116 311 -131 357 -118 371 39 45 20 134 -34 158 -33 15 -93 13 -124 -4z m104 -37 c45 -35 19 -110 -38 -110 -32 0 -65 32 -65 63 0 45 66 75 103 47z m777 -68 c43 -43 11 -104 -51 -98 -77 7 -69 117 9 118 12 0 31 -9 42 -20z m634 -76 c9 -8 16 -28 16 -44 0 -36 -23 -60 -57 -60 -55 0 -83 62 -46 102 20 22 66 24 87 2z m-1744 -303 c35 -67 -27 -128 -88 -85 -26 18 -30 65 -6 88 22 23 81 21 94 -3z m2084 -367 c9 -8 16 -28 16 -44 0 -36 -24 -60 -60 -60 -36 0 -60 24 -60 60 0 16 7 36 16 44 8 9 28 16 44 16 16 0 36 -7 44 -16z m-1354 -104 c24 -24 25 -48 4 -78 -32 -46 -114 -17 -114 40 0 26 36 58 65 58 14 0 34 -9 45 -20z m-1512 -152 c16 -16 16 -70 0 -86 -7 -7 -28 -12 -48 -12 -44 0 -60 15 -60 55 0 40 16 55 60 55 20 0 41 -5 48 -12z m1947 -281 c340 -249 400 -297 403 -320 2 -15 18 -42 36 -60 l33 -32 -248 -400 c-234 -378 -250 -401 -286 -413 -21 -7 -47 -22 -58 -32 -20 -19 -24 -17 -445 263 l-425 282 3 51 c3 45 -1 55 -27 83 l-31 33 281 411 c286 422 287 422 349 425 8 1 195 -130 415 -291z m1399 257 c9 -8 16 -28 16 -44 0 -36 -24 -60 -60 -60 -36 0 -60 24 -60 60 0 16 7 36 16 44 8 9 28 16 44 16 16 0 36 -7 44 -16z m-840 -510 c9 -8 16 -28 16 -44 0 -36 -24 -60 -60 -60 -36 0 -60 24 -60 60 0 36 24 60 60 60 16 0 36 -7 44 -16z m-2500 -100 c20 -20 20 -68 0 -88 -8 -9 -28 -16 -44 -16 -36 0 -60 24 -60 60 0 36 24 60 60 60 16 0 36 -7 44 -16z m3390 -160 c9 -8 16 -28 16 -44 0 -36 -24 -60 -60 -60 -36 0 -60 24 -60 60 0 36 24 60 60 60 16 0 36 -7 44 -16z m-2496 -96 c16 -16 16 -80 0 -96 -7 -7 -26 -12 -43 -12 -40 0 -55 16 -55 60 0 44 15 60 55 60 17 0 36 -5 43 -12z m-840 -520 c16 -16 16 -70 0 -86 -7 -7 -28 -12 -48 -12 -44 0 -60 15 -60 55 0 17 5 36 12 43 16 16 80 16 96 0z m3350 -20 c16 -16 16 -80 0 -96 -7 -7 -26 -12 -43 -12 -17 0 -36 5 -43 12 -16 16 -16 80 0 96 16 16 70 16 86 0z m-1450 -160 c13 -29 4 -63 -22 -80 -23 -16 -65 -8 -80 14 -20 28 -20 48 0 76 23 34 84 28 102 -10z m-1420 -100 c7 -7 12 -26 12 -43 0 -40 -16 -55 -60 -55 -44 0 -60 15 -60 55 0 17 5 36 12 43 16 16 80 16 96 0z m2104 -431 c25 -40 -8 -97 -56 -97 -63 0 -76 103 -16 122 19 6 62 -9 72 -25z m-1784 -123 c26 -18 30 -65 6 -88 -22 -23 -81 -21 -94 3 -35 67 27 128 88 85z m640 -156 c26 -55 -26 -106 -83 -80 -33 15 -42 55 -20 88 13 21 23 25 53 22 28 -2 40 -9 50 -30z m754 -115 c37 -33 10 -103 -41 -103 -41 0 -64 22 -64 60 0 54 63 81 105 43z"/>
 <path d="M5869 3751 c-36 -37 -41 -104 -9 -144 24 -30 78 -50 111 -42 23 5 29 -7 157 -356 110 -299 131 -365 120 -375 -11 -11 -58 22 -270 191 -223 179 -257 209 -262 238 -12 62 -83 106 -141 87 -55 -18 -80 -54 -80 -115 l0 -54 -305 -240 c-190 -149 -309 -236 -314 -230 -6 5 -31 9 -57 9 -38 0 -53 -6 -78 -29 -26 -25 -31 -36 -31 -76 0 -40 5 -51 31 -76 25 -23 40 -29 78 -29 26 0 52 5 59 12 8 8 81 -57 299 -270 464 -452 470 -459 451 -478 -15 -15 -41 -7 -348 103 -304 110 -332 122 -346 149 -23 46 -51 64 -101 64 -37 0 -50 -5 -74 -31 -24 -25 -29 -40 -29 -79 0 -39 5 -54 29 -79 25 -26 36 -31 76 -31 40 0 51 5 76 31 16 17 29 37 29 44 0 8 125 -33 337 -110 310 -112 338 -124 344 -148 7 -25 -1 -30 -326 -206 l-332 -179 -61 5 c-58 5 -62 4 -91 -25 -26 -25 -31 -38 -31 -77 0 -38 5 -52 29 -76 24 -24 38 -29 76 -29 39 0 52 5 77 30 28 28 30 35 26 84 l-4 54 330 178 c182 99 335 180 341 181 5 2 18 -3 28 -11 16 -12 5 -35 -150 -297 -152 -256 -171 -284 -200 -291 -75 -19 -100 -122 -44 -179 16 -16 40 -29 53 -29 18 0 48 -35 151 -179 l128 -179 -21 -34 c-29 -48 -26 -91 10 -132 17 -19 44 -37 59 -41 68 -15 144 54 139 124 l-3 34 445 277 c373 233 447 276 459 265 15 -15 19 -8 -241 -405 -125 -190 -130 -195 -175 -210 -59 -19 -88 -57 -87 -112 1 -35 8 -48 38 -75 51 -47 104 -47 152 1 45 45 47 100 6 148 l-29 33 194 295 c173 263 197 295 220 295 27 0 27 -2 125 -368 l99 -368 -21 -26 c-31 -39 -27 -98 9 -134 25 -24 37 -29 80 -29 41 0 56 5 81 27 45 43 45 106 0 152 -22 22 -42 31 -72 33 l-42 3 -99 369 c-86 321 -97 371 -84 383 12 13 44 -15 248 -212 187 -181 235 -232 240 -258 11 -66 55 -107 114 -107 64 0 119 64 113 133 -3 32 8 43 297 300 194 173 303 263 309 257 6 -6 31 -10 57 -10 40 0 53 5 78 31 26 26 31 38 31 79 0 41 -5 53 -32 80 -29 29 -35 31 -89 28 l-57 -3 -370 367 c-279 277 -369 372 -365 386 4 17 39 6 341 -103 290 -105 337 -125 340 -143 2 -12 17 -35 33 -52 26 -25 38 -30 79 -30 41 0 53 5 79 31 26 26 31 38 31 79 0 41 -5 53 -31 79 -26 26 -38 31 -79 31 -43 0 -53 -4 -84 -36 l-35 -36 -332 120 c-255 92 -334 124 -340 139 -6 17 31 40 329 202 274 148 340 180 354 172 10 -6 38 -11 62 -11 36 0 50 6 75 31 26 26 31 38 31 79 0 41 -5 53 -31 79 -26 26 -38 31 -79 31 -41 0 -53 -5 -80 -31 -28 -29 -31 -37 -29 -86 l3 -54 -334 -181 c-258 -139 -338 -178 -350 -170 -8 6 -14 16 -12 23 2 7 76 135 165 286 133 225 165 273 183 273 13 0 36 14 53 31 26 25 31 38 31 77 0 53 -18 81 -68 109 -27 14 -58 63 -165 253 -130 229 -133 236 -119 263 35 71 -20 157 -101 157 -72 0 -121 -55 -115 -130 l3 -38 -414 -315 c-341 -259 -417 -313 -431 -305 -19 12 -35 -21 199 419 111 209 116 216 154 230 54 19 80 55 79 110 -1 37 -6 49 -36 77 -51 46 -105 45 -152 -2 -47 -47 -48 -100 -2 -151 30 -35 31 -37 15 -68 -8 -18 -82 -158 -164 -311 -121 -227 -154 -281 -174 -286 -24 -7 -27 -1 -157 352 -128 347 -131 360 -117 388 25 48 19 97 -14 131 -25 25 -37 29 -81 29 -44 0 -56 -4 -81 -29z m119 -27 c22 -15 30 -57 14 -80 -32 -49 -105 -32 -110 25 -6 60 46 90 96 55z m774 -61 c20 -18 23 -54 8 -84 -13 -24 -72 -26 -94 -3 -54 53 30 138 86 87z m648 -95 c13 -25 13 -31 0 -55 -33 -59 -131 -28 -115 35 10 42 25 53 64 50 27 -2 39 -10 51 -30z m-50 -132 l56 -1 126 -225 127 -224 -25 -16 c-40 -27 -53 -52 -54 -102 0 -40 5 -52 33 -80 l34 -33 -167 -280 c-129 -217 -171 -281 -188 -283 -12 -2 -35 -17 -52 -33 l-30 -30 -394 287 c-351 256 -394 290 -385 306 6 11 9 38 7 61 l-3 42 410 312 c322 246 414 311 430 306 11 -4 45 -7 75 -7z m-1704 -161 c21 -32 11 -72 -21 -87 -35 -16 -71 -3 -85 32 -10 25 -10 34 4 55 23 35 79 35 102 0z m312 -290 c216 -172 252 -205 258 -233 3 -18 19 -46 35 -61 l28 -28 -282 -415 c-252 -371 -285 -416 -312 -421 -28 -4 -53 18 -399 362 l-369 366 0 65 0 65 299 236 c294 232 299 236 326 223 15 -8 40 -14 55 -14 31 0 93 34 93 51 0 6 4 9 9 7 5 -1 121 -93 259 -203z m1776 -71 c9 -8 16 -28 16 -44 0 -16 -7 -36 -16 -44 -8 -9 -28 -16 -44 -16 -16 0 -36 7 -44 16 -9 8 -16 28 -16 44 0 36 24 60 60 60 16 0 36 -7 44 -16z m-1362 -101 c39 -35 11 -103 -43 -103 -36 0 -59 24 -59 60 0 54 61 80 102 43z m-1514 -155 c7 -7 12 -26 12 -43 0 -40 -16 -55 -60 -55 -44 0 -60 15 -60 55 0 40 16 55 60 55 20 0 41 -5 48 -12z m1947 -281 c313 -229 401 -298 403 -317 5 -31 24 -58 55 -79 l24 -16 -247 -399 c-136 -219 -254 -402 -261 -407 -8 -5 -24 -9 -36 -9 -12 0 -34 -11 -50 -24 l-29 -25 -420 278 -419 277 3 56 c3 52 2 57 -31 89 l-35 34 280 410 c293 430 281 417 353 423 6 1 190 -130 410 -291z m1409 257 c9 -8 16 -28 16 -44 0 -16 -7 -36 -16 -44 -8 -9 -28 -16 -44 -16 -16 0 -36 7 -44 16 -9 8 -16 28 -16 44 0 36 24 60 60 60 16 0 36 -7 44 -16z m-850 -510 c9 -8 16 -28 16 -44 0 -36 -24 -60 -60 -60 -36 0 -60 24 -60 60 0 36 24 60 60 60 16 0 36 -7 44 -16z m-2496 -96 c16 -16 16 -80 0 -96 -7 -7 -26 -12 -43 -12 -40 0 -55 16 -55 60 0 44 15 60 55 60 17 0 36 -5 43 -12z m2902 -407 c304 -299 373 -371 363 -382 -15 -15 -17 -105 -3 -114 5 -3 -126 -127 -291 -274 l-301 -268 -36 19 c-45 23 -86 17 -122 -17 l-25 -24 -238 232 c-198 193 -238 237 -237 259 0 17 -11 40 -28 59 l-28 32 255 413 c172 278 262 414 273 414 9 0 20 5 23 10 3 6 9 10 13 10 4 0 176 -166 382 -369z m494 243 c9 -8 16 -28 16 -44 0 -36 -24 -60 -60 -60 -36 0 -60 24 -60 60 0 36 24 60 60 60 16 0 36 -7 44 -16z m-2500 -100 c9 -8 16 -28 16 -44 0 -36 -24 -60 -60 -60 -36 0 -60 24 -60 60 0 36 24 60 60 60 16 0 36 -7 44 -16z m454 -415 c235 -155 428 -282 429 -283 0 0 3 -17 5 -35 l3 -35 -444 -277 -445 -277 -24 19 c-14 11 -40 19 -61 19 -36 0 -39 3 -158 170 l-121 171 29 29 c24 23 29 37 29 75 0 39 -5 52 -30 77 l-31 30 42 72 c289 490 301 508 347 525 2 0 196 -126 430 -280z m-1300 -101 c7 -7 12 -26 12 -43 0 -39 -16 -55 -55 -55 -39 0 -55 16 -55 55 0 17 5 36 12 43 16 16 70 16 86 0z m3356 -24 c9 -8 16 -28 16 -44 0 -36 -24 -60 -60 -60 -36 0 -60 24 -60 60 0 36 24 60 60 60 16 0 36 -7 44 -16z m-1462 -141 c37 -34 10 -103 -42 -103 -44 0 -67 31 -60 80 6 41 67 55 102 23z m-1414 -115 c7 -7 12 -26 12 -43 0 -39 -16 -55 -55 -55 -39 0 -55 16 -55 55 0 17 5 36 12 43 16 16 70 16 86 0z m2109 -434 c33 -52 -25 -112 -82 -86 -46 21 -41 93 8 111 30 11 56 2 74 -25z m-1791 -112 c40 -26 35 -95 -8 -111 -40 -15 -88 16 -88 56 0 44 60 79 96 55z m636 -149 c22 -20 23 -61 1 -85 -20 -22 -66 -24 -87 -2 -19 18 -21 75 -4 92 17 17 68 15 90 -5z m762 -129 c9 -8 16 -28 16 -44 0 -36 -23 -60 -57 -60 -55 0 -83 62 -46 102 20 22 66 24 87 2z"/>
 <path d="M10609 3765 c-34 -18 -53 -65 -46 -112 6 -35 2 -41 -105 -162 -84 -96 -120 -129 -147 -137 -20 -6 -48 -23 -64 -39 -25 -24 -28 -34 -26 -77 l3 -50 -302 -237 -302 -237 -58 4 c-53 4 -60 2 -90 -26 -27 -26 -32 -37 -32 -77 0 -40 5 -51 31 -76 17 -16 40 -29 50 -29 18 0 19 -9 19 -149 0 -81 3 -176 6 -210 6 -57 6 -61 -14 -61 -11 0 -34 -14 -51 -31 -26 -26 -31 -38 -31 -79 0 -41 5 -53 31 -79 17 -17 39 -31 50 -31 14 0 19 -7 19 -27 0 -16 9 -129 20 -253 24 -272 24 -280 6 -280 -8 0 -28 -13 -45 -29 -26 -25 -31 -36 -31 -76 0 -40 5 -51 31 -76 25 -23 40 -29 78 -29 26 0 51 4 56 9 6 5 70 -30 160 -89 123 -81 151 -104 157 -129 9 -32 55 -71 85 -71 12 0 61 -60 150 -184 l131 -184 -21 -21 c-46 -46 -18 -139 50 -167 46 -20 86 -10 120 29 l28 32 200 -42 c110 -23 201 -43 203 -43 1 0 2 -12 2 -26 0 -16 13 -39 35 -61 35 -35 36 -36 103 -29 92 9 620 -74 662 -104 31 -22 108 -27 141 -10 29 16 51 67 47 110 -3 37 0 41 121 154 109 101 129 116 159 116 26 0 43 9 69 35 32 32 35 39 31 83 l-3 49 299 266 c246 218 303 264 317 256 10 -5 36 -9 59 -9 61 0 90 35 90 110 0 46 -5 62 -23 82 -13 14 -30 27 -37 30 -11 3 -15 48 -18 211 -3 132 -1 207 5 207 6 0 22 11 37 25 23 21 26 32 26 85 0 53 -3 64 -26 85 -15 14 -32 25 -38 25 -8 0 -19 86 -35 272 -22 260 -22 271 -5 281 43 24 64 59 64 108 0 40 -5 52 -31 78 -26 26 -38 31 -79 31 -27 0 -51 -4 -55 -10 -9 -14 -309 188 -313 211 -2 10 -17 32 -33 49 -26 26 -38 30 -83 30 l-52 0 -102 241 c-93 223 -100 243 -87 263 8 11 15 39 15 62 0 35 -5 47 -35 73 -52 45 -104 44 -153 -5 l-35 -35 -202 22 -202 23 -12 33 c-31 84 -136 98 -198 26 l-21 -26 -219 12 c-310 16 -322 18 -333 45 -22 59 -109 85 -171 51z m97 -33 c40 -26 35 -95 -8 -111 -40 -15 -88 16 -88 56 0 44 60 79 96 55z m784 -72 c24 -24 25 -48 4 -78 -22 -31 -78 -30 -99 2 -42 64 41 130 95 76z m-400 -30 c91 -6 181 -10 200 -10 32 0 37 -4 49 -35 6 -19 23 -43 37 -54 l24 -19 -167 -316 c-156 -294 -170 -316 -193 -314 -23 3 -34 28 -156 357 -128 347 -131 355 -115 383 16 28 17 28 86 23 39 -3 144 -10 235 -15z m1034 -46 c9 -8 16 -28 16 -44 0 -16 -7 -36 -16 -44 -8 -9 -28 -16 -44 -16 -16 0 -36 7 -44 16 -9 8 -16 28 -16 44 0 36 24 60 60 60 16 0 36 -7 44 -16z m-1495 -10 c19 -10 42 -13 60 -9 19 4 30 2 33 -7 63 -166 258 -698 258 -705 0 -5 -5 -14 -11 -20 -8 -8 -79 43 -268 194 -217 174 -256 209 -259 234 -2 16 -16 42 -32 57 l-28 29 106 121 c59 67 107 122 108 122 0 0 15 -7 33 -16z m1338 -38 c0 0 3 -12 5 -26 3 -21 -43 -59 -407 -336 -225 -172 -418 -313 -427 -313 -9 -1 -19 3 -23 8 -3 5 68 148 157 317 150 282 166 308 198 321 40 17 80 51 80 68 0 7 62 4 208 -13 114 -13 208 -25 209 -26z m122 -104 l40 3 102 -243 c86 -206 101 -247 91 -263 -16 -26 -14 -100 3 -123 8 -11 25 -27 38 -35 l23 -16 -166 -280 c-129 -218 -171 -281 -188 -283 -12 -2 -35 -17 -52 -33 l-30 -30 -395 288 c-345 251 -394 290 -388 308 4 11 8 39 8 62 l0 42 414 314 c402 306 415 315 438 300 14 -9 38 -14 62 -11z m-1715 -148 c21 -20 20 -63 -1 -86 -35 -39 -103 -11 -103 43 0 36 24 59 60 59 16 0 36 -7 44 -16z m329 -309 c197 -157 247 -202 247 -221 0 -13 13 -38 30 -57 l29 -34 -282 -415 c-244 -359 -286 -417 -311 -422 -28 -6 -50 14 -394 356 l-365 363 -1 73 -1 74 298 234 c287 226 298 234 320 219 36 -25 92 -19 129 14 18 16 37 26 43 22 5 -5 121 -97 258 -206z m1761 -61 c9 -8 16 -28 16 -44 0 -16 -7 -36 -16 -44 -8 -9 -28 -16 -44 -16 -16 0 -36 7 -44 16 -9 8 -16 28 -16 44 0 36 24 60 60 60 16 0 36 -7 44 -16z m-1368 -92 c26 -17 35 -51 22 -80 -18 -38 -79 -44 -102 -10 -20 28 -20 48 0 76 15 22 57 30 80 14z m1581 -81 c84 -55 131 -91 124 -96 -8 -4 -11 -28 -10 -62 l3 -54 -334 -180 c-277 -150 -335 -178 -346 -167 -11 11 14 61 153 296 118 198 173 282 185 282 10 0 32 16 50 35 18 19 34 35 36 35 2 0 64 -40 139 -89z m-3079 -83 c7 -7 12 -26 12 -43 0 -40 -16 -55 -60 -55 -44 0 -60 15 -60 55 0 40 16 55 60 55 20 0 41 -5 48 -12z m1947 -281 c340 -249 400 -297 403 -320 2 -15 18 -42 36 -60 l33 -32 -248 -400 c-234 -378 -250 -401 -286 -413 -21 -7 -47 -22 -58 -32 -20 -19 -24 -17 -445 263 l-425 282 3 52 c3 47 0 54 -31 85 l-34 34 279 410 c295 433 282 418 358 422 8 1 195 -130 415 -291z m1399 257 c9 -8 16 -28 16 -44 0 -36 -24 -60 -60 -60 -36 0 -60 24 -60 60 0 36 24 60 60 60 16 0 36 -7 44 -16z m-2666 -757 c81 -81 91 -95 78 -106 -13 -11 -71 7 -347 106 -315 114 -332 121 -346 152 -9 17 -28 39 -43 48 -24 14 -28 24 -34 76 -3 33 -6 125 -6 205 0 126 2 146 17 157 15 12 51 -20 303 -265 157 -153 327 -321 378 -373z m2567 613 c3 -5 15 -10 26 -10 13 0 19 -7 19 -22 0 -13 9 -124 20 -248 24 -274 24 -280 5 -280 -8 0 -29 -16 -48 -35 l-34 -35 -328 119 c-263 95 -330 123 -336 139 -7 17 -2 25 19 37 92 54 629 343 639 344 6 1 15 -3 18 -9z m-741 -366 c9 -8 16 -28 16 -44 0 -36 -24 -60 -60 -60 -36 0 -60 24 -60 60 0 36 24 60 60 60 16 0 36 -7 44 -16z m736 -331 c0 -26 54 -83 80 -83 16 0 18 -16 22 -207 3 -115 4 -209 3 -211 -2 -2 -14 -4 -28 -5 -20 -2 -90 63 -393 363 -321 318 -368 369 -360 386 9 19 25 14 342 -100 299 -108 334 -123 334 -143z m-3236 231 c9 -8 16 -28 16 -44 0 -36 -24 -60 -60 -60 -36 0 -60 24 -60 60 0 36 24 60 60 60 16 0 36 -7 44 -16z m3043 -548 c179 -178 230 -233 221 -243 -6 -7 -9 -36 -6 -66 l4 -52 -300 -267 c-287 -255 -301 -266 -319 -250 -27 24 -89 21 -126 -6 -17 -12 -33 -22 -36 -22 -3 0 -108 99 -233 220 -207 202 -228 225 -239 268 -7 26 -22 56 -35 67 l-23 20 255 412 c209 339 259 413 277 413 12 0 25 5 29 11 7 11 61 -40 531 -505z m-2299 212 c3 -24 -19 -37 -333 -207 -250 -135 -342 -180 -358 -175 -23 5 -24 11 -46 281 -23 266 -23 276 -5 286 25 14 64 58 64 72 0 7 133 -36 338 -110 314 -114 337 -124 340 -147z m2646 176 c9 -8 16 -28 16 -44 0 -36 -24 -60 -60 -60 -36 0 -60 24 -60 60 0 36 24 60 60 60 16 0 36 -7 44 -16z m-2496 -96 c7 -7 12 -28 12 -48 0 -44 -15 -60 -55 -60 -40 0 -55 16 -55 60 0 44 15 60 55 60 17 0 36 -5 43 -12z m-94 -151 c16 -12 3 -36 -151 -297 -130 -220 -174 -286 -191 -288 -11 -2 -35 -17 -53 -33 -17 -16 -33 -29 -35 -29 -2 0 -61 38 -131 84 l-126 85 0 68 0 68 324 176 c178 97 329 177 335 178 5 1 18 -5 28 -12z m557 -269 l429 -283 0 -35 0 -35 -444 -276 c-442 -275 -443 -276 -466 -257 -13 11 -38 18 -64 18 l-41 0 -118 164 c-64 91 -117 168 -117 171 0 4 14 20 30 35 25 23 30 36 30 75 0 41 -5 51 -35 79 l-34 32 167 283 c163 274 181 298 230 310 2 1 197 -126 433 -281z m-1303 -100 c7 -7 12 -26 12 -43 0 -40 -16 -55 -60 -55 -44 0 -60 15 -60 55 0 17 5 36 12 43 16 16 80 16 96 0z m3350 -20 c7 -7 12 -28 12 -48 0 -44 -15 -60 -55 -60 -40 0 -55 16 -55 60 0 20 5 41 12 48 16 16 70 16 86 0z m-1467 -138 c24 -13 26 -72 3 -94 -23 -24 -70 -20 -88 6 -43 61 18 123 85 88z m-1403 -122 c7 -7 12 -26 12 -43 0 -40 -16 -55 -60 -55 -44 0 -60 15 -60 55 0 17 5 36 12 43 16 16 80 16 96 0z m1700 -215 c199 -193 231 -228 237 -260 3 -21 16 -49 28 -62 l22 -23 -120 -113 c-111 -106 -120 -112 -139 -99 -11 8 -37 14 -57 14 l-37 0 -26 97 c-130 476 -173 649 -163 661 5 7 13 11 18 10 4 -2 111 -103 237 -225z m-402 192 c5 -13 -373 -604 -386 -603 -31 2 -55 -7 -83 -32 l-34 -29 -201 42 c-198 41 -202 43 -202 67 1 22 52 57 438 297 240 150 443 272 450 273 7 0 15 -7 18 -15z m199 -381 l98 -367 -18 -30 c-10 -17 -21 -42 -24 -57 l-6 -26 -240 37 c-340 54 -306 45 -294 76 13 35 3 77 -27 112 l-24 29 195 296 c163 249 198 296 218 296 22 0 28 -16 122 -366z m607 -27 c24 -37 -10 -97 -55 -97 -57 0 -78 91 -28 116 26 13 69 3 83 -19z m-1782 -127 c35 -35 25 -81 -21 -99 -39 -14 -73 6 -77 48 -6 62 55 94 98 51z m636 -149 c13 -26 3 -69 -19 -83 -37 -23 -97 10 -97 54 0 58 91 81 116 29z m760 -126 c21 -32 11 -72 -22 -87 -58 -27 -114 35 -80 87 23 35 79 35 102 0z"/>
 </g>

</svg>